<svg width="200" height="50" viewBox="0 0 200 50" fill="none" xmlns="http://www.w3.org/2000/svg">
  <!-- U in Purple -->
  <text x="2" y="38" font-family="Arial, sans-serif" font-size="40" font-weight="bold" fill="#6708C0">U</text>
  
  <!-- niq in Black -->
  <text x="32" y="38" font-family="Arial, sans-serif" font-size="40" font-weight="bold" fill="#000000">niq</text>
  
  <!-- Gear icon -->
  <g transform="translate(95, 5)">
    <circle cx="10" cy="10" r="6" fill="#000000"/>
    <circle cx="10" cy="10" r="3.5" fill="white"/>
    <rect x="9" y="2" width="2" height="4" fill="#000000" rx="0.5"/>
    <rect x="9" y="16" width="2" height="4" fill="#000000" rx="0.5"/>
    <rect x="2" y="9" width="4" height="2" fill="#000000" rx="0.5"/>
    <rect x="16" y="9" width="4" height="2" fill="#000000" rx="0.5"/>
    <rect x="4" y="4" width="2.8" height="2.8" fill="#000000" rx="0.5" transform="rotate(45 5.4 5.4)"/>
    <rect x="13.2" y="13.2" width="2.8" height="2.8" fill="#000000" rx="0.5" transform="rotate(45 14.6 14.6)"/>
    <rect x="4" y="13.2" width="2.8" height="2.8" fill="#000000" rx="0.5" transform="rotate(-45 5.4 14.6)"/>
    <rect x="13.2" y="4" width="2.8" height="2.8" fill="#000000" rx="0.5" transform="rotate(-45 14.6 5.4)"/>
  </g>
  
  <!-- Graduation cap -->
  <g transform="translate(95, -5)">
    <polygon points="10,8 5,10 10,12 15,10" fill="#000000"/>
    <rect x="14.5" y="9.5" width="0.5" height="5" fill="#000000"/>
    <circle cx="14.75" cy="15" r="0.8" fill="#000000"/>
    <polygon points="6,10.5 6,13 10,14.5 14,13 14,10.5" fill="#000000"/>
  </g>
  
  <!-- B in Orange -->
  <text x="112" y="38" font-family="Arial, sans-serif" font-size="40" font-weight="bold" fill="#DE7D14">B</text>
  
  <!-- rio in Black -->
  <text x="141" y="38" font-family="Arial, sans-serif" font-size="40" font-weight="bold" fill="#000000">rio</text>
  
  <!-- Star decorations -->
  <g transform="translate(65, 15)">
    <polygon points="2.5,0 3,1.5 4.5,2 3,2.5 2.5,4 2,2.5 0.5,2 2,1.5" fill="#000000"/>
  </g>
  <g transform="translate(156, 15)">
    <polygon points="2.5,0 3,1.5 4.5,2 3,2.5 2.5,4 2,2.5 0.5,2 2,1.5" fill="#000000"/>
  </g>
</svg>
